<svg width="136" height="149" viewBox="0 0 136 149" fill="none" xmlns="http://www.w3.org/2000/svg">
<line x1="6.99979" y1="34.0459" x2="5.99062" y2="144.046" stroke="white" stroke-width="10"/>
<line x1="125" y1="71.0685" x2="124" y2="144.068" stroke="white" stroke-width="10"/>
<line x1="129.039" y1="143" x2="1.03906" y2="144" stroke="white" stroke-width="10"/>
<line x1="2" y1="29" x2="63" y2="29" stroke="white" stroke-width="10"/>
<path d="M128.95 4.29289C128.559 1.55922 126.027 -0.340273 123.293 0.0502513L78.7452 6.41421C76.0115 6.80474 74.112 9.3374 74.5025 12.0711C74.8931 14.8047 77.4257 16.7042 80.1594 16.3137L119.757 10.6569L125.414 50.2548C125.805 52.9885 128.337 54.888 131.071 54.4975C133.805 54.107 135.704 51.5743 135.314 48.8406L128.95 4.29289ZM74 80L128 8L120 2L66 74L74 80Z" fill="white"/>
<path d="M66 74C64.8 78.8 70.8333 80 74 80L66 74Z" fill="white"/>
</svg>
